<svg width="27" height="16" viewBox="0 0 27 16" fill="none" xmlns="http://www.w3.org/2000/svg">
<path d="M26.4689 3.36042L14.5689 15.2958C14.4272 15.4375 14.2737 15.5376 14.1085 15.5962C13.9432 15.6557 13.7661 15.6854 13.5772 15.6854C13.3883 15.6854 13.2112 15.6557 13.046 15.5962C12.8807 15.5376 12.7272 15.4375 12.5855 15.2958L0.65013 3.36042C0.319575 3.02987 0.154297 2.61668 0.154297 2.12084C0.154297 1.62501 0.33138 1.20001 0.685547 0.845842C1.03971 0.491676 1.45291 0.314592 1.92513 0.314592C2.39735 0.314592 2.81055 0.491676 3.16471 0.845842L13.5772 11.2583L23.9897 0.845842C24.3203 0.515287 24.7273 0.350009 25.2109 0.350009C25.6954 0.350009 26.1147 0.527092 26.4689 0.881259C26.823 1.23543 27.0001 1.64862 27.0001 2.12084C27.0001 2.59306 26.823 3.00626 26.4689 3.36042Z" fill="#FBF9ED"/>
</svg>
