<svg width="39" height="40" viewBox="0 0 39 40" fill="none" xmlns="http://www.w3.org/2000/svg">
<circle cx="19.5" cy="20.5" r="19.5" fill="#D9D9D9"/>
<path d="M30.375 18.5937L19.875 29.1249C19.75 29.2499 19.6146 29.3383 19.4688 29.3899C19.3229 29.4424 19.1667 29.4687 19 29.4687C18.8333 29.4687 18.6771 29.4424 18.5312 29.3899C18.3854 29.3383 18.25 29.2499 18.125 29.1249L7.59375 18.5937C7.30208 18.302 7.15625 17.9374 7.15625 17.4999C7.15625 17.0624 7.3125 16.6874 7.625 16.3749C7.9375 16.0624 8.30208 15.9062 8.71875 15.9062C9.13542 15.9062 9.5 16.0624 9.8125 16.3749L19 25.5624L28.1875 16.3749C28.4792 16.0833 28.8383 15.9374 29.265 15.9374C29.6925 15.9374 30.0625 16.0937 30.375 16.4062C30.6875 16.7187 30.8438 17.0833 30.8438 17.4999C30.8438 17.9166 30.6875 18.2812 30.375 18.5937Z" fill="black" fill-opacity="0.67"/>
</svg>
