<svg width="39" height="42" viewBox="0 0 39 42" fill="none" xmlns="http://www.w3.org/2000/svg">
<circle cx="19.5" cy="19.5" r="19.5" fill="#D9D9D9"/>
<path d="M7.625 23.4063L18.125 12.8751C18.25 12.7501 18.3854 12.6617 18.5312 12.6101C18.6771 12.5576 18.8333 12.5313 19 12.5313C19.1667 12.5313 19.3229 12.5576 19.4687 12.6101C19.6146 12.6617 19.75 12.7501 19.875 12.8751L30.4063 23.4063C30.6979 23.698 30.8438 24.0626 30.8438 24.5001C30.8438 24.9376 30.6875 25.3126 30.375 25.6251C30.0625 25.9376 29.6979 26.0938 29.2812 26.0938C28.8646 26.0938 28.5 25.9376 28.1875 25.6251L19 16.4376L9.8125 25.6251C9.52083 25.9167 9.16167 26.0626 8.735 26.0626C8.3075 26.0626 7.9375 25.9063 7.625 25.5938C7.3125 25.2813 7.15625 24.9167 7.15625 24.5001C7.15625 24.0834 7.3125 23.7188 7.625 23.4063V23.4063Z" fill="black" fill-opacity="0.67"/>
</svg>
