<svg width="86" height="86" viewBox="0 0 86 86" fill="none" xmlns="http://www.w3.org/2000/svg">
<circle cx="43" cy="43" r="43" fill="#E2AC86"/>
<path d="M43 20.5076C42.0161 20.5076 41.0418 20.7014 40.1327 21.0779C39.2237 21.4544 38.3977 22.0063 37.702 22.7021C37.0063 23.3978 36.4544 24.2238 36.0778 25.1328C35.7013 26.0418 35.5075 27.0161 35.5075 28.0001C35.5075 28.984 35.7013 29.9583 36.0778 30.8673C36.4544 31.7764 37.0063 32.6023 37.702 33.2981C38.3977 33.9938 39.2237 34.5457 40.1327 34.9222C41.0418 35.2988 42.0161 35.4926 43 35.4926C44.9871 35.4926 46.8929 34.7032 48.298 33.2981C49.7031 31.8929 50.4925 29.9872 50.4925 28.0001C50.4925 26.0129 49.7031 24.1072 48.298 22.7021C46.8929 21.297 44.9871 20.5076 43 20.5076ZM59.875 24.2501C58.3832 24.2501 56.9524 24.8427 55.8975 25.8976C54.8426 26.9525 54.25 28.3832 54.25 29.8751C54.25 31.3669 54.8426 32.7977 55.8975 33.8525C56.9524 34.9074 58.3832 35.5001 59.875 35.5001C61.3668 35.5001 62.7976 34.9074 63.8525 33.8525C64.9074 32.7977 65.5 31.3669 65.5 29.8751C65.5 28.3832 64.9074 26.9525 63.8525 25.8976C62.7976 24.8427 61.3668 24.2501 59.875 24.2501ZM26.125 24.2501C24.6332 24.2501 23.2024 24.8427 22.1475 25.8976C21.0926 26.9525 20.5 28.3832 20.5 29.8751C20.5 31.3669 21.0926 32.7977 22.1475 33.8525C23.2024 34.9074 24.6332 35.5001 26.125 35.5001C27.6168 35.5001 29.0476 34.9074 30.1025 33.8525C31.1574 32.7977 31.75 31.3669 31.75 29.8751C31.75 28.3832 31.1574 26.9525 30.1025 25.8976C29.0476 24.8427 27.6168 24.2501 26.125 24.2501ZM31.75 42.9738C31.7569 41.9838 32.1551 41.0367 32.8576 40.3391C33.5601 39.6415 34.51 39.25 35.5 39.2501H50.5C51.4946 39.2501 52.4484 39.6452 53.1516 40.3484C53.8549 41.0517 54.25 42.0055 54.25 43.0001V54.2501C54.2497 55.4303 54.065 56.6032 53.7025 57.7263C52.8721 60.2715 51.1617 62.4372 48.8782 63.8347C46.5947 65.2322 43.8878 65.7698 41.2436 65.3511C38.5994 64.9324 36.1911 63.5847 34.4511 61.5501C32.7111 59.5155 31.7534 56.9272 31.75 54.2501V42.9738ZM28 43.0001C28 41.6313 28.3638 40.3526 29.005 39.2501H20.5C19.5054 39.2501 18.5516 39.6452 17.8483 40.3484C17.1451 41.0517 16.75 42.0055 16.75 43.0001V52.3751C16.7495 53.91 17.1258 55.4215 17.846 56.777C18.5662 58.1324 19.6082 59.2903 20.8804 60.149C22.1527 61.0076 23.6163 61.5408 25.1427 61.7016C26.6692 61.8624 28.2117 61.646 29.635 61.0713C28.5557 58.9585 27.9952 56.6189 28 54.2463V43.0001ZM58 43.0001V54.2501C58 56.7063 57.4113 59.0238 56.365 61.0713C57.7883 61.646 59.3308 61.8624 60.8573 61.7016C62.3837 61.5408 63.8473 61.0076 65.1196 60.149C66.3918 59.2903 67.4338 58.1324 68.154 56.777C68.8742 55.4215 69.2505 53.91 69.25 52.3751V43.0001C69.25 42.0055 68.8549 41.0517 68.1516 40.3484C67.4484 39.6452 66.4946 39.2501 65.5 39.2501H56.995C57.6325 40.3526 58 41.6313 58 43.0001Z" fill="#FBEDDF" fill-opacity="0.9"/>
</svg>
