<svg width="86" height="86" viewBox="0 0 86 86" fill="none" xmlns="http://www.w3.org/2000/svg">
<circle cx="43" cy="43" r="43" fill="#E2AC86"/>
<path d="M43 13C26.433 13 13 26.433 13 43C13 59.567 26.433 73 43 73C59.567 73 73 59.567 73 43C73 26.433 59.567 13 43 13ZM44.4933 57.5446L44.5067 59.6674C44.5067 59.9621 44.2656 60.2098 43.971 60.2098H42.0692C41.7746 60.2098 41.5335 59.9688 41.5335 59.6741V57.5714C35.5871 57.1295 32.7879 53.7411 32.4866 50.058C32.4598 49.7433 32.7076 49.4754 33.0223 49.4754H36.1161C36.3772 49.4754 36.6049 49.6629 36.6451 49.9174C36.9866 52.0402 38.6406 53.6272 41.6071 54.0223V44.4665L39.9531 44.0446C36.4509 43.2076 33.1161 41.0246 33.1161 36.4978C33.1161 31.6161 36.8259 28.9911 41.567 28.529V26.3192C41.567 26.0246 41.808 25.7835 42.1027 25.7835H43.9844C44.279 25.7835 44.5201 26.0246 44.5201 26.3192V28.5089C49.1071 28.971 52.5491 31.6496 52.9509 35.8214C52.9844 36.1362 52.7366 36.4107 52.4152 36.4107H49.4085C49.1406 36.4107 48.9129 36.2098 48.8795 35.9487C48.6116 33.9933 47.0446 32.3996 44.4933 32.0513V41.0446L46.1942 41.4397C50.5335 42.5112 53.4866 44.5871 53.4866 49.2344C53.4866 54.2768 49.7366 57.0893 44.4933 57.5446ZM37.2812 36.1897C37.2812 37.8906 38.3326 39.2098 40.596 40.0268C40.9107 40.154 41.2254 40.2545 41.6004 40.3616V32.058C39.1295 32.3728 37.2812 33.7589 37.2812 36.1897ZM45.0826 45.2433C44.8951 45.2031 44.7076 45.1562 44.4933 45.096V54.0491C47.346 53.7946 49.3147 52.2277 49.3147 49.6027C49.3147 47.5469 48.25 46.2076 45.0826 45.2433Z" fill="#FBEDDF" fill-opacity="0.9"/>
</svg>
