<svg width="86" height="86" viewBox="0 0 86 86" fill="none" xmlns="http://www.w3.org/2000/svg">
<circle cx="43" cy="43" r="43" fill="#E2AC86"/>
<path d="M68.7143 22.2807C66.8823 22.2862 65.1039 22.8989 63.6577 24.0229C62.2115 25.1468 61.1792 26.7185 60.7226 28.4918H51.9977C51.6114 25.4177 50.3698 22.5136 48.414 20.1099C46.4582 17.7061 43.8667 15.8992 40.9343 14.8945C38.0019 13.8899 34.8463 13.7278 31.8263 14.4269C28.8063 15.1259 26.0433 16.6579 23.8513 18.8487C21.6593 21.0395 20.1265 23.8011 19.4271 26.8194C18.7277 29.8378 18.8898 32.9917 19.895 35.9225C20.9002 38.8533 22.7081 41.4434 25.1131 43.3982C27.5182 45.3529 30.4238 46.5939 33.4995 46.9799V55.7002C31.5469 56.2041 29.8451 57.4025 28.7132 59.0708C27.5814 60.739 27.0971 62.7625 27.3512 64.7621C27.6053 66.7617 28.5804 68.6 30.0936 69.9324C31.6068 71.2649 33.5543 72 35.571 72C37.5877 72 39.5352 71.2649 41.0484 69.9324C42.5616 68.6 43.5367 66.7617 43.7908 64.7621C44.0449 62.7625 43.5606 60.739 42.4288 59.0708C41.2969 57.4025 39.5951 56.2041 37.6425 55.7002V46.982C40.5872 46.6116 43.377 45.4527 45.717 43.628L53.3172 51.2262C52.5563 52.4884 52.1505 53.9326 52.1427 55.4062C52.1427 57.0441 52.6286 58.6452 53.5391 60.0071C54.4495 61.369 55.7436 62.4304 57.2576 63.0572C58.7717 63.684 60.4377 63.848 62.045 63.5285C63.6523 63.2089 65.1287 62.4202 66.2874 61.262C67.4462 60.1039 68.2354 58.6283 68.5551 57.0218C68.8748 55.4154 68.7107 53.7503 68.0836 52.2371C67.4565 50.7239 66.3944 49.4305 65.0318 48.5205C63.6692 47.6105 62.0673 47.1249 60.4285 47.1249C58.9541 47.1326 57.5091 47.5382 56.2462 48.2987L48.644 40.7006C50.4701 38.3627 51.6303 35.5751 52.0018 32.6324H60.7247C61.1148 34.1285 61.9168 35.4852 63.0397 36.5485C64.1625 37.6119 65.5612 38.3392 67.0769 38.648C68.5925 38.9567 70.1645 38.8345 71.6141 38.2951C73.0638 37.7558 74.3331 36.821 75.2778 35.5969C76.2226 34.3728 76.8051 32.9084 76.959 31.3701C77.1129 29.8318 76.8321 28.2811 76.1485 26.8943C75.4649 25.5075 74.4059 24.34 73.0918 23.5245C71.7777 22.7089 70.2611 22.278 68.7143 22.2807ZM39.7139 63.6876C39.7139 64.5066 39.4709 65.3071 39.0157 65.988C38.5605 66.669 37.9134 67.1997 37.1564 67.5131C36.3994 67.8265 35.5664 67.9085 34.7628 67.7487C33.9591 67.589 33.2209 67.1946 32.6415 66.6155C32.0621 66.0364 31.6676 65.2986 31.5077 64.4954C31.3478 63.6922 31.4299 62.8596 31.7435 62.103C32.057 61.3464 32.588 60.6997 33.2693 60.2447C33.9506 59.7898 34.7516 59.5469 35.571 59.5469C36.6694 59.548 37.7226 59.9846 38.4993 60.7609C39.276 61.5372 39.7128 62.5898 39.7139 63.6876ZM35.571 42.9842C33.1128 42.9842 30.7099 42.2556 28.666 40.8907C26.6221 39.5257 25.029 37.5857 24.0883 35.3158C23.1476 33.046 22.9015 30.5483 23.3811 28.1387C23.8606 25.729 25.0444 23.5156 26.7826 21.7784C28.5207 20.0411 30.7353 18.858 33.1463 18.3787C35.5572 17.8994 38.0562 18.1454 40.3273 19.0856C42.5983 20.0258 44.5394 21.618 45.9051 23.6608C47.2708 25.7036 47.9997 28.1053 47.9997 30.5621C47.9959 33.8555 46.6852 37.0128 44.3552 39.3416C42.0252 41.6703 38.8661 42.9803 35.571 42.9842ZM64.5714 55.4062C64.5714 56.2252 64.3284 57.0257 63.8732 57.7067C63.418 58.3876 62.7709 58.9183 62.0139 59.2317C61.2569 59.5451 60.4239 59.6271 59.6202 59.4674C58.8166 59.3076 58.0784 58.9132 57.499 58.3341C56.9196 57.7551 56.525 57.0173 56.3652 56.214C56.2053 55.4108 56.2874 54.5783 56.6009 53.8217C56.9145 53.065 57.4455 52.4184 58.1268 51.9634C58.8081 51.5084 59.6091 51.2655 60.4285 51.2655C61.5269 51.2666 62.58 51.7032 63.3568 52.4795C64.1335 53.2558 64.5703 54.3084 64.5714 55.4062ZM68.7143 34.7028C67.8949 34.7028 67.0939 34.4599 66.4126 34.005C65.7313 33.55 65.2003 32.9033 64.8868 32.1467C64.5732 31.3901 64.4911 30.5575 64.651 29.7543C64.8109 28.9511 65.2054 28.2133 65.7848 27.6342C66.3642 27.0551 67.1024 26.6607 67.9061 26.501C68.7097 26.3412 69.5427 26.4232 70.2997 26.7366C71.0568 27.05 71.7038 27.5807 72.159 28.2617C72.6142 28.9426 72.8572 29.7432 72.8572 30.5621C72.8561 31.6599 72.4193 32.7125 71.6426 33.4888C70.8659 34.2651 69.8127 34.7017 68.7143 34.7028Z" fill="#FBEDDF" fill-opacity="0.9"/>
</svg>
