<svg width="86" height="86" viewBox="0 0 86 86" fill="none" xmlns="http://www.w3.org/2000/svg">
<circle cx="43" cy="43" r="43" fill="#E2AC86"/>
<path d="M65.1304 19.75H20.8937C18.2299 19.75 16 21.9902 16 24.6664V41.0383C16 56.1387 28.0174 68.1875 43.0241 68.1875C57.9705 68.1875 70 56.1387 70 41.0383V24.6664C70 21.9539 67.8665 19.75 65.1304 19.75ZM45.6036 52.2637C44.1089 53.6926 41.8188 53.6078 40.4929 52.2637C26.7879 39.0766 26.6433 39.5367 26.6433 37.3449C26.6433 35.2984 28.3067 33.6273 30.3438 33.6273C32.3929 33.6273 32.2844 34.0875 43.0241 44.441C53.9446 33.918 53.7036 33.6273 55.7406 33.6273C57.7777 33.6273 59.4411 35.2984 59.4411 37.3449C59.4411 39.5004 59.0915 39.2461 45.6036 52.2637Z" fill="#FBEDDF" fill-opacity="0.9"/>
</svg>
