<svg width="30" height="30" viewBox="0 0 30 30" fill="none" xmlns="http://www.w3.org/2000/svg">
<path d="M8.74756 0.501465C3.92381 0.501465 0 4.29759 0 8.96126V21.0433C0 25.7058 3.92744 29.4984 8.75244 29.4984H21.2524C26.0762 29.4984 30 25.7023 30 21.0386V8.95654C30 4.29408 26.0726 0.501465 21.2476 0.501465H8.74756ZM23.75 5.33428C24.44 5.33428 25 5.87556 25 6.54249C25 7.20942 24.44 7.75069 23.75 7.75069C23.06 7.75069 22.5 7.20942 22.5 6.54249C22.5 5.87556 23.06 5.33428 23.75 5.33428ZM15 7.75069C19.1362 7.75069 22.5 11.002 22.5 14.9999C22.5 18.9979 19.1362 22.2492 15 22.2492C10.8638 22.2492 7.5 18.9979 7.5 14.9999C7.5 11.002 10.8638 7.75069 15 7.75069ZM15 10.1671C13.6739 10.1671 12.4021 10.6763 11.4645 11.5826C10.5268 12.4889 10 13.7182 10 14.9999C10 16.2817 10.5268 17.5109 11.4645 18.4172C12.4021 19.3236 13.6739 19.8327 15 19.8327C16.3261 19.8327 17.5979 19.3236 18.5355 18.4172C19.4732 17.5109 20 16.2817 20 14.9999C20 13.7182 19.4732 12.4889 18.5355 11.5826C17.5979 10.6763 16.3261 10.1671 15 10.1671Z" fill="#DD8D5A"/>
</svg>
