<svg width="53" height="53" viewBox="0 0 53 53" fill="none" xmlns="http://www.w3.org/2000/svg">
<mask id="mask0_80_429" style="mask-type:alpha" maskUnits="userSpaceOnUse" x="4" y="4" width="45" height="45">
<path d="M6.625 36.4375V43.0625C6.625 43.941 6.97399 44.7836 7.59521 45.4048C8.21642 46.026 9.05897 46.375 9.9375 46.375H16.5625M36.4375 46.375H43.0625C43.941 46.375 44.7836 46.026 45.4048 45.4048C46.026 44.7836 46.375 43.941 46.375 43.0625V36.4375M46.375 16.5625V9.9375C46.375 9.05897 46.026 8.21642 45.4048 7.59521C44.7836 6.97399 43.941 6.625 43.0625 6.625H36.4375M6.625 16.5625V9.9375C6.625 9.05897 6.97399 8.21642 7.59521 7.59521C8.21642 6.97399 9.05897 6.625 9.9375 6.625H16.5625" stroke="white" stroke-width="4.41667" stroke-linecap="round" stroke-linejoin="round"/>
<path d="M37.5427 26.5L26.501 37.5417L15.4594 26.5C14.3552 25.3959 13.8031 23.1875 15.4594 20.9792C17.1156 18.7709 20.4281 18.7709 22.0844 19.875C23.7406 20.9792 24.2927 22.0834 26.501 22.0834C28.7094 22.0834 29.2615 20.9792 30.9177 19.875C32.574 18.7709 35.8865 18.7709 37.5427 20.9792C39.199 23.1875 38.6469 25.3959 37.5427 26.5Z" fill="white" stroke="white" stroke-width="4.41667" stroke-linecap="round" stroke-linejoin="round"/>
</mask>
<g mask="url(#mask0_80_429)">
<path d="M0 0H53V53H0V0Z" fill="white"/>
</g>
</svg>
