<svg width="55" height="55" viewBox="0 0 55 55" fill="none" xmlns="http://www.w3.org/2000/svg">
<path d="M30.0781 23.2031C30.0781 27.5 27.5 33.5156 27.5 33.5156M28.3594 24.9218C28.3594 24.9218 30.9375 18.0468 24.9219 12.8906C18.9062 7.73433 9.45312 9.45308 9.45312 9.45308C9.45312 9.45308 9.45312 16.3281 14.6094 21.4843C19.7656 26.6406 28.3594 24.9218 28.3594 24.9218ZM30.0781 21.4843C30.0781 21.4843 27.5 14.6093 33.5156 9.45308C39.5312 4.29683 48.9844 6.01558 48.9844 6.01558C48.9844 6.01558 48.9844 12.8906 43.8281 18.0468C38.6719 23.2031 30.0781 21.4843 30.0781 21.4843ZM16.3281 33.5156H38.6719C38.6719 33.5156 40.3906 48.9843 27.5 48.9843C14.6094 48.9843 16.3281 33.5156 16.3281 33.5156Z" stroke="#708A81" stroke-width="5.15625" stroke-linecap="round" stroke-linejoin="round"/>
</svg>
