<svg width="54" height="35" viewBox="0 0 54 35" fill="none" xmlns="http://www.w3.org/2000/svg">
<path d="M53.7087 26.4203L53.6414 26.8077L53.5714 26.7939C53.093 28.7098 51.9911 30.4707 50.3931 31.8726C48.7951 33.2745 46.7663 34.2603 44.5415 34.7157C42.3166 35.1712 39.9867 35.0778 37.8213 34.4464C35.6558 33.8149 33.7434 32.6712 32.3052 31.1476C30.867 29.624 29.9619 27.7827 29.6946 25.8368C29.4272 23.8909 29.8086 21.92 30.7945 20.152C31.7805 18.384 33.3307 16.8913 35.2658 15.8465C37.201 14.8018 39.4419 14.2477 41.7294 14.2483C42.3297 14.2483 42.9058 14.3267 43.4792 14.3982C43.2935 13.8633 43.1023 13.3191 42.7955 12.8303C42.4886 12.1201 42.0094 11.5045 41.5329 10.8842C41.1345 10.2133 40.4319 9.75903 39.9151 9.1849C39.374 8.62691 38.6364 8.25569 38.0522 7.79223C37.4788 7.30803 36.7278 7.06592 36.1302 6.72467C35.5056 6.41801 34.9619 6.07906 34.3804 5.91766L32.9294 5.40579L31.6534 4.95156L32.9563 0.48072L34.5634 0.812748C35.0776 0.923424 35.7048 1.05254 36.4182 1.20703C37.1477 1.32232 37.9257 1.63821 38.7925 1.92642C39.6459 2.25615 40.6392 2.47519 41.5598 3.0032C42.4859 3.50585 43.5546 3.9255 44.4968 4.59878C45.4093 5.29281 46.5104 5.89461 47.3233 6.7754C48.2117 7.60086 49.0893 8.46781 49.7703 9.45467C50.5591 10.3954 51.0948 11.4284 51.6601 12.4498C52.1715 13.4713 52.5834 14.5158 52.9199 15.5303C53.5579 17.564 53.8433 19.4962 53.9536 21.1494C54.0451 22.8049 53.9913 24.1815 53.8782 25.1775C53.8404 25.5935 53.7838 26.0081 53.7087 26.4203ZM24.0971 26.4203L24.0298 26.8077L23.9598 26.7939C23.4815 28.7098 22.3796 30.4707 20.7815 31.8726C19.1835 33.2745 17.1547 34.2603 14.9299 34.7157C12.7051 35.1712 10.3752 35.0778 8.20973 34.4464C6.04429 33.8149 4.13184 32.6712 2.69367 31.1476C1.25549 29.624 0.350366 27.7827 0.0830229 25.8368C-0.184321 23.8909 0.197043 21.92 1.18299 20.152C2.16893 18.384 3.71916 16.8913 5.6543 15.8465C7.58944 14.8018 9.8304 14.2477 12.1179 14.2483C12.7182 14.2483 13.2943 14.3267 13.8677 14.3982C13.6819 13.8633 13.4908 13.3191 13.1839 12.8303C12.877 12.1201 12.3979 11.5045 11.9214 10.8842C11.523 10.2133 10.8204 9.75903 10.3035 9.1849C9.76243 8.62691 9.02483 8.25569 8.44068 7.79223C7.86729 7.30803 7.11624 7.06592 6.51862 6.72467C5.89409 6.41801 5.35031 6.07906 4.76885 5.91766L3.31788 5.40579C2.5076 5.12219 2.04459 4.95617 2.04459 4.95617L3.34749 0.485332L4.95459 0.81736C5.46876 0.928035 6.09598 1.05716 6.80935 1.21164C7.53887 1.32693 8.31685 1.64282 9.18366 1.93103C10.037 2.26076 11.0303 2.4798 11.951 3.00782C12.877 3.51047 13.9457 3.93011 14.8879 4.60339C15.8005 5.29742 16.9015 5.89922 17.7145 6.78001C18.6028 7.60547 19.4804 8.47243 20.1615 9.45928C20.9502 10.4 21.4859 11.433 22.0512 12.4544C22.5627 13.4759 22.9746 14.5204 23.3111 15.5349C23.9491 17.5686 24.2344 19.5008 24.3448 21.154C24.4363 22.8095 24.3825 24.1861 24.2694 25.1821C24.2292 25.5965 24.1717 26.0095 24.0971 26.4203Z" fill="#E2AC86"/>
</svg>
