<svg width="30" height="34" viewBox="0 0 30 34" fill="none" xmlns="http://www.w3.org/2000/svg">
<path d="M30 13.9393C27.0519 13.9463 24.1761 13.0346 21.7788 11.3329V23.201C21.778 25.3991 21.1005 27.5446 19.8369 29.3506C18.5733 31.1565 16.7838 32.5369 14.7078 33.3071C12.6317 34.0773 10.368 34.2006 8.21938 33.6605C6.07074 33.1205 4.13958 31.9428 2.68411 30.2849C1.22864 28.6271 0.318236 26.5681 0.0746387 24.3833C-0.168958 22.1985 0.26586 19.9921 1.32095 18.0589C2.37604 16.1258 4.00112 14.5582 5.97888 13.5657C7.95664 12.5732 10.1928 12.2031 12.3884 12.505V18.4742C11.3837 18.1608 10.3048 18.1703 9.30585 18.5012C8.30688 18.8321 7.4389 19.4676 6.82586 20.3169C6.21282 21.1662 5.88607 22.1859 5.89228 23.2303C5.89848 24.2748 6.23732 25.2905 6.8604 26.1326C7.48349 26.9747 8.35896 27.6 9.36179 27.9192C10.3646 28.2385 11.4435 28.2353 12.4444 27.9102C13.4453 27.5851 14.3171 26.9547 14.9351 26.1089C15.5532 25.2632 15.886 24.2455 15.8859 23.201V0H21.7788C21.7747 0.493491 21.8164 0.98631 21.9033 1.47223C22.1081 2.55696 22.5339 3.58886 23.1546 4.50482C23.7753 5.42078 24.578 6.20154 25.5134 6.79934C26.8442 7.67198 28.4045 8.13709 30 8.13676V13.9393Z" fill="#DD8D5A"/>
</svg>
