<svg width="33" height="24" viewBox="0 0 33 24" fill="none" xmlns="http://www.w3.org/2000/svg">
<path d="M16.6052 0.123047H16.7888C18.4841 0.129234 27.0744 0.19111 29.3906 0.813985C30.0908 1.00408 30.7289 1.37462 31.241 1.88856C31.7532 2.40251 32.1214 3.04186 32.3091 3.74273C32.5174 4.52648 32.6638 5.56392 32.7628 6.63436L32.7834 6.84886L32.8288 7.38511L32.8453 7.59961C32.9794 9.48473 32.9959 11.2502 32.9979 11.6359V11.7906C32.9959 12.1907 32.9773 14.0759 32.8288 16.0394L32.8123 16.2559L32.7938 16.4704C32.6906 17.6502 32.538 18.8217 32.3091 19.6838C32.122 20.3849 31.7539 21.0246 31.2417 21.5386C30.7295 22.0527 30.0911 22.423 29.3906 22.6125C26.9981 23.256 17.9046 23.3014 16.6444 23.3035H16.3515C15.7142 23.3035 13.0783 23.2911 10.3146 23.1962L9.96394 23.1839L9.7845 23.1756L9.43181 23.1612L9.07912 23.1467C6.78975 23.0457 4.60969 22.8827 3.60525 22.6105C2.90501 22.4211 2.26682 22.0511 1.75462 21.5375C1.24242 21.0238 0.874184 20.3846 0.686813 19.6838C0.457875 18.8237 0.30525 17.6502 0.202125 16.4704L0.185625 16.2539L0.169125 16.0394C0.0673357 14.6418 0.010931 13.2413 0 11.8401L0 11.5864C0.004125 11.143 0.020625 9.61055 0.132 7.9193L0.146438 7.70686L0.152625 7.59961L0.169125 7.38511L0.2145 6.84886L0.235125 6.63436C0.334125 5.56392 0.480562 4.52442 0.688875 3.74273C0.875931 3.04158 1.24402 2.40193 1.75625 1.88789C2.26847 1.37386 2.90682 1.00351 3.60731 0.813985C4.61175 0.54586 6.79181 0.380859 9.08119 0.277734L9.43181 0.263297L9.78656 0.250922L9.96394 0.244735L10.3166 0.230297C12.2795 0.167132 14.2432 0.132066 16.2071 0.125109H16.6052V0.123047ZM13.2 6.74367V16.6808L21.7738 11.7143L13.2 6.74367Z" fill="#DD8D5A"/>
</svg>
